HIERARCHY
ROOT Hips
{
	OFFSET 0.00000 0.00000 0.00000
	CHANNELS 6 Xposition Yposition Zposition Zrotation Yrotation Xrotation 
	JOINT LHipJoint
	{
		OFFSET 0 0 0
		CHANNELS 3 Zrotation Yrotation Xrotation
		JOINT LeftUpLeg
		{
			OFFSET 1.81638 -1.86202 0.89635
			CHANNELS 3 Zrotation Yrotation Xrotation
			JOINT LeftLeg
			{
				OFFSET 2.63464 -7.23861 0.00000
				CHANNELS 3 Zrotation Yrotation Xrotation
				JOINT LeftFoot
				{
					OFFSET 2.45871 -6.75336 0.00000
					CHANNELS 3 Zrotation Yrotation Xrotation
					JOINT LeftToeBase
					{
						OFFSET 0.34235 -0.94059 2.20020
						CHANNELS 3 Zrotation Yrotation Xrotation
						End Site
						{
							OFFSET 0.00000 -0.00000 1.18611
						}
					}
				}
			}
		}
	}
	JOINT RHipJoint
	{
		OFFSET 0 0 0
		CHANNELS 3 Zrotation Yrotation Xrotation
		JOINT RightUpLeg
		{
			OFFSET -1.84405 -1.86203 0.89635
			CHANNELS 3 Zrotation Yrotation Xrotation
			JOINT RightLeg
			{
				OFFSET -2.71067 -7.44751 0.00000
				CHANNELS 3 Zrotation Yrotation Xrotation
				JOINT RightFoot
				{
					OFFSET -2.47159 -6.79060 0.00000
					CHANNELS 3 Zrotation Yrotation Xrotation
					JOINT RightToeBase
					{
						OFFSET -0.26223 -0.72048 2.36007
						CHANNELS 3 Zrotation Yrotation Xrotation
						End Site
						{
							OFFSET -0.00000 -0.00000 1.23343
						}
					}
				}
			}
		}
	}
	JOINT LowerBack
	{
		OFFSET 0 0 0
		CHANNELS 3 Zrotation Yrotation Xrotation
		JOINT Spine
		{
			OFFSET 0.02089 1.99248 -0.22512
			CHANNELS 3 Zrotation Yrotation Xrotation
			JOINT Spine1
			{
				OFFSET 0.01476 2.01356 -0.03079
				CHANNELS 3 Zrotation Yrotation Xrotation
				JOINT Neck
				{
					OFFSET 0 0 0
					CHANNELS 3 Zrotation Yrotation Xrotation
					JOINT Neck1
					{
						OFFSET 0.04846 1.65098 0.06663
						CHANNELS 3 Zrotation Yrotation Xrotation
						JOINT Head
						{
							OFFSET -0.06061 1.60634 -0.07565
							CHANNELS 3 Zrotation Yrotation Xrotation
							End Site
							{
								OFFSET -0.02954 1.73562 -0.03642
							}
						}
					}
				}
				JOINT LeftShoulder
				{
					OFFSET 0 0 0
					CHANNELS 3 Zrotation Yrotation Xrotation
					JOINT LeftArm
					{
						OFFSET 3.45234 1.47051 -0.06993
						CHANNELS 3 Zrotation Yrotation Xrotation
						JOINT LeftForeArm
						{
							OFFSET 5.49313 -0.00000 0.00000
							CHANNELS 3 Zrotation Yrotation Xrotation
							JOINT LeftHand
							{
								OFFSET 3.29037 -0.00000 0.00000
								CHANNELS 3 Zrotation Yrotation Xrotation
								JOINT LeftFingerBase
								{
									OFFSET 0 0 0
									CHANNELS 3 Zrotation Yrotation Xrotation
									JOINT LeftHandIndex1
									{
										OFFSET 0.72966 -0.00000 0.00000
										CHANNELS 3 Zrotation Yrotation Xrotation
										End Site
										{
											OFFSET 0.58827 -0.00000 0.00000
										}
									}
								}
								JOINT LThumb
								{
									OFFSET 0 0 0
									CHANNELS 3 Zrotation Yrotation Xrotation
									End Site
									{
										OFFSET 0.59725 -0.00000 0.59725
									}
								}
							}
						}
					}
				}
				JOINT RightShoulder
				{
					OFFSET 0 0 0
					CHANNELS 3 Zrotation Yrotation Xrotation
					JOINT RightArm
					{
						OFFSET -3.41935 1.44327 0.20453
						CHANNELS 3 Zrotation Yrotation Xrotation
						JOINT RightForeArm
						{
							OFFSET -5.23684 -0.00000 0.00000
							CHANNELS 3 Zrotation Yrotation Xrotation
							JOINT RightHand
							{
								OFFSET -3.38251 -0.00000 0.00000
								CHANNELS 3 Zrotation Yrotation Xrotation
								JOINT RightFingerBase
								{
									OFFSET 0 0 0
									CHANNELS 3 Zrotation Yrotation Xrotation
									JOINT RightHandIndex1
									{
										OFFSET -0.69145 -0.00000 0.00000
										CHANNELS 3 Zrotation Yrotation Xrotation
										End Site
										{
											OFFSET -0.55747 -0.00000 0.00000
										}
									}
								}
								JOINT RThumb
								{
									OFFSET 0 0 0
									CHANNELS 3 Zrotation Yrotation Xrotation
									End Site
									{
										OFFSET -0.56598 -0.00000 0.56598
									}
								}
							}
						}
					}
				}
			}
		}
	}
}
MOTION
Frames: 11
Frame Time: .0083333
-36.8528 17.4865 -1.2776 0 0 0 0 0 0 -21 0 0 0 0 0 0 0 0 0 0 0 0 0 0 21 0 0 0 0 0 0 0 0 0 0 0 0 0 0 0 0 0 0 0 0 0 0 -16 0 0 21 0 0 11 0 0 0 -8 0 0 0 0 0 0 0 0 0 0 0 0 0 0 0 0 0 0 0 0 8 0 0 0 0 0 0 0 0 0 0 0 0 0 0 0 0 0
-36.8528 17.4865 -1.2776 -16.3625 82.7908 -17.1630 0.0000 0.0000 0.0000 -11.7349 -8.9025 -15.6607 2.8290 10.4130 30.3247 0.4550 -13.8166 -14.4623 0.2063 -2.9245 -8.0685 0.0000 0.0000 0.0000 25.5881 9.3675 7.0398 -1.3623 -7.3877 20.8692 -2.2829 4.9632 -27.4772 -0.5283 -4.6577 12.9347 -1.4197 -1.6464 13.8705 2.3767 -2.0681 4.6173 3.6145 -0.9596 -2.7605 -3.5986 4.2110 -4.2846 -1.3218 5.7960 -4.6595 0.2087 2.9977 -0.7855 0.0000 -0.0000 0.0000 -85.8515 14.2870 21.9884 31.3902 -42.0556 -12.3304 -0.0000 0.0000 -0.1905 -2.8682 11.7939 -0.5867 -7.1250 0.0000 -0.0000 -26.0447 40.2776 3.2918 0.0000 -0.0000 0.0000 76.0014 -10.2324 32.0494 -20.7765 31.5665 -5.9325 0.0000 0.0000 3.1812 -6.9208 -16.7114 1.9990 7.1250 -0.0000 -0.0000 19.5313 -45.8456 -0.4238
-36.8517 17.4866 -1.2777 -16.3139 82.7659 -17.0985 0.0000 0.0000 0.0000 -11.7347 -8.9109 -15.6608 2.8292 10.4133 30.3259 0.4597 -13.7651 -14.4831 0.2094 -2.9464 -8.1296 0.0000 0.0000 0.0000 25.5917 9.3937 7.0250 -1.3649 -7.3944 20.8891 -2.2711 4.9262 -27.4080 -0.5126 -4.5890 12.7399 -1.4393 -1.6505 13.8493 2.3601 -2.0766 4.6334 3.6083 -0.9644 -2.7315 -3.0691 4.3649 -3.7546 -2.0048 5.9369 -5.3540 -0.1058 3.0820 -1.0503 -0.0000 0.0000 0.0000 -85.8399 14.4158 22.1483 31.5423 -42.1792 -12.4324 -0.0000 0.0000 -0.3738 -2.7035 11.8645 -0.5562 -7.1250 0.0000 -0.0000 -25.9367 40.3564 3.2207 -0.0000 0.0000 0.0000 75.8984 -10.2227 32.6434 -20.7188 31.4986 -5.9023 0.0000 0.0000 3.0068 -7.3356 -16.9260 2.1464 7.1250 -0.0000 -0.0000 19.2424 -46.1000 -0.5423
-36.8517 17.4880 -1.2797 -15.9822 82.6640 -16.7262 0.0000 0.0000 0.0000 -11.7431 -8.8831 -15.6910 2.8304 10.4152 30.3321 0.4640 -13.7014 -14.4949 0.2089 -2.9430 -8.1200 0.0000 0.0000 0.0000 25.5463 9.4362 6.9593 -1.3675 -7.4012 20.9095 -2.2528 4.9808 -27.2841 -0.4962 -4.5162 12.5336 -1.4582 -1.6254 13.8357 2.3372 -2.0481 4.6229 3.5902 -0.9505 -2.7374 -2.4161 4.4885 -3.1235 -2.8429 6.0246 -6.0873 -0.4946 3.1429 -1.3389 0.0000 0.0000 0.0000 -85.8504 14.5928 22.2767 31.7184 -42.3215 -12.5508 -0.0000 0.0000 -0.5779 -2.5741 11.8952 -0.5309 -7.1250 0.0000 -0.0000 -25.8425 40.3961 3.1794 0.0000 0.0000 0.0000 75.7751 -10.2529 33.3100 -20.6422 31.4083 -5.8624 0.0000 0.0000 2.9414 -7.8005 -17.0747 2.3034 7.1250 -0.0000 -0.0000 18.8823 -46.2993 -0.6276
-36.8509 17.4878 -1.2815 -15.9793 82.6056 -16.7126 0.0000 0.0000 0.0000 -11.7240 -8.8699 -15.6836 2.8324 10.4186 30.3433 0.4679 -13.6690 -14.5171 0.2066 -2.9266 -8.0745 0.0000 0.0000 0.0000 25.5516 9.4575 6.9440 -1.3699 -7.4074 20.9280 -2.2379 4.9762 -27.1902 -0.4789 -4.4378 12.3118 -1.4452 -1.6246 13.8429 2.3249 -2.0458 4.6304 3.5696 -0.9493 -2.7347 -1.2512 4.7407 -2.1135 -4.3535 6.2317 -7.2651 -1.2091 3.2809 -1.8041 0.0000 -0.0000 0.0000 -85.8952 14.7858 22.3622 31.9003 -42.4676 -12.6735 -0.0000 0.0000 -0.7575 -2.3650 11.8711 -0.4868 -7.1250 0.0000 -0.0000 -25.6636 40.3936 3.1553 0.0000 -0.0000 0.0000 75.6225 -10.3049 34.0122 -20.6431 31.4093 -5.8628 0.0000 0.0000 2.9594 -8.0065 -17.3188 2.3977 7.1250 -0.0000 -0.0000 18.7902 -46.5574 -0.7481
-36.8510 17.4885 -1.2839 -15.8544 82.5001 -16.5520 0.0000 0.0000 0.0000 -11.7085 -8.8530 -15.7277 2.8352 10.4233 30.3587 0.4741 -13.5827 -14.5367 0.2080 -2.9365 -8.1020 0.0000 0.0000 0.0000 25.5591 9.5681 6.9194 -1.3723 -7.4136 20.9468 -2.2145 4.9579 -27.0440 -0.4653 -4.3754 12.1353 -1.4387 -1.6077 13.8767 2.3169 -2.0239 4.6076 3.5559 -0.9378 -2.7789 -1.6010 4.6750 -2.5191 -3.9119 6.1870 -6.8191 -0.9895 3.2447 -1.6153 -0.0000 0.0000 0.0000 -85.9889 15.0587 22.4534 32.0848 -42.6147 -12.7982 -0.0000 0.0000 -0.8981 -2.0226 11.7351 -0.4115 -7.1250 0.0000 -0.0000 -25.3355 40.3022 3.1704 -0.0000 0.0000 0.0000 75.4687 -10.4316 34.6165 -20.6841 31.4578 -5.8842 0.0000 0.0000 3.1214 -7.9791 -17.0916 2.3590 7.1250 -0.0000 -0.0000 18.7283 -46.3379 -0.6406
-36.8506 17.4890 -1.2860 -15.6903 82.4115 -16.3617 0.0000 0.0000 0.0000 -11.7030 -8.8361 -15.7508 2.8389 10.4295 30.3791 0.4801 -13.5163 -14.5644 0.2081 -2.9369 -8.1032 0.0000 0.0000 0.0000 25.5498 9.6345 6.8952 -1.3743 -7.4187 20.9620 -2.1952 4.9590 -26.9199 -0.4506 -4.3066 11.9407 -1.4412 -1.5925 13.8906 2.3027 -2.0053 4.6000 3.5402 -0.9284 -2.7961 -1.3288 4.7307 -2.3149 -4.2582 6.2333 -7.0581 -1.1545 3.2752 -1.7077 -0.0000 -0.0000 0.0000 -86.0520 15.2863 22.5571 32.2562 -42.7504 -12.9144 -0.0000 0.0000 -1.0482 -1.7460 11.6710 -0.3533 -7.1250 0.0000 -0.0000 -25.0871 40.2694 3.1564 -0.0000 -0.0000 0.0000 75.3277 -10.5212 35.2356 -20.7030 31.4800 -5.8941 0.0000 0.0000 3.1553 -8.0974 -17.0874 2.3938 7.1250 -0.0000 -0.0000 18.6204 -46.3489 -0.6418
-36.8501 17.4895 -1.2884 -15.5224 82.3119 -16.1675 0.0000 0.0000 0.0000 -11.6952 -8.8126 -15.7759 2.8431 10.4366 30.4024 0.4866 -13.4465 -14.5953 0.2082 -2.9379 -8.1058 0.0000 0.0000 0.0000 25.5413 9.7065 6.8729 -1.3759 -7.4229 20.9746 -2.1752 4.9624 -26.7908 -0.4347 -4.2311 11.7279 -1.4402 -1.5740 13.9094 2.2888 -1.9818 4.5897 3.5224 -0.9165 -2.8193 -1.1477 4.7661 -2.1877 -4.4903 6.2621 -7.2043 -1.2650 3.2944 -1.7637 0.0000 -0.0000 0.0000 -86.1254 15.5312 22.6598 32.4226 -42.8815 -13.0275 -0.0000 0.0000 -1.1865 -1.4468 11.5955 -0.2909 -7.1250 0.0000 -0.0000 -24.8161 40.2280 3.1444 0.0000 -0.0000 0.0000 75.1884 -10.6288 35.8309 -20.7369 31.5199 -5.9118 0.0000 0.0000 3.1850 -8.1603 -17.0546 2.4082 7.1250 -0.0000 -0.0000 18.5514 -46.3257 -0.6283
-36.8494 17.4900 -1.2908 -15.3644 82.2079 -15.9825 0.0000 0.0000 0.0000 -11.6854 -8.7864 -15.7985 2.8464 10.4421 30.4206 0.4931 -13.3744 -14.6251 0.2083 -2.9385 -8.1077 0.0000 0.0000 0.0000 25.5357 9.7830 6.8523 -1.3777 -7.4274 20.9881 -2.1558 4.9686 -26.6651 -0.4206 -4.1628 11.5350 -1.4349 -1.5523 13.9290 2.2736 -1.9540 4.5773 3.5000 -0.9023 -2.8457 -1.0356 4.7850 -2.1149 -4.6273 6.2768 -7.2826 -1.3311 3.3042 -1.7938 -0.0000 0.0000 0.0000 -86.1993 15.7912 22.7709 32.5780 -43.0032 -13.1334 -0.0000 0.0000 -1.3162 -1.1369 11.5023 -0.2267 -7.1250 0.0000 -0.0000 -24.5302 40.1712 3.1397 -0.0000 0.0000 0.0000 75.0668 -10.7429 36.3679 -20.7656 31.5538 -5.9268 0.0000 0.0000 3.2118 -8.1696 -16.9886 2.4019 7.1250 -0.0000 -0.0000 18.5184 -46.2640 -0.5979
-36.8485 17.4907 -1.2933 -15.2016 82.0954 -15.7906 0.0000 0.0000 0.0000 -11.6744 -8.7551 -15.8234 2.8498 10.4478 30.4394 0.4999 -13.2971 -14.6559 0.2083 -2.9388 -8.1084 0.0000 0.0000 0.0000 25.5291 9.8622 6.8321 -1.3787 -7.4303 20.9965 -2.1359 4.9820 -26.5340 -0.4075 -4.0979 11.3523 -1.4267 -1.5262 13.9477 2.2569 -1.9199 4.5627 3.4734 -0.8851 -2.8745 -0.9791 4.7896 -2.0862 -4.6844 6.2785 -7.3005 -1.3599 3.3055 -1.8011 -0.0000 0.0000 0.0000 -86.2729 16.0639 22.8909 32.7191 -43.1130 -13.2297 -0.0000 0.0000 -1.4376 -0.8303 11.3973 -0.1641 -7.1250 0.0000 -0.0000 -24.2432 40.1031 3.1414 -0.0000 0.0000 0.0000 74.9620 -10.8636 36.8507 -20.7895 31.5818 -5.9393 0.0000 0.0000 3.2160 -8.1436 -16.9056 2.3828 7.1250 -0.0000 -0.0000 18.5106 -46.1816 -0.5588
-36.8472 17.4913 -1.2958 -15.0315 81.9816 -15.5916 0.0000 0.0000 0.0000 -11.6649 -8.7228 -15.8447 2.8529 10.4531 30.4568 0.5067 -13.2195 -14.6877 0.2081 -2.9374 -8.1045 0.0000 0.0000 0.0000 25.5209 9.9400 6.8153 -1.3793 -7.4316 21.0004 -2.1174 4.9946 -26.4119 -0.3935 -4.0280 11.1554 -1.4177 -1.4971 13.9633 2.2384 -1.8819 4.5487 3.4437 -0.8659 -2.9013 -0.9164 4.7921 -2.0474 -4.7389 6.2773 -7.3189 -1.3892 3.3051 -1.8102 -0.0000 0.0000 0.0000 -86.3440 16.3451 23.0202 32.8443 -43.2100 -13.3154 -0.0000 0.0000 -1.5576 -0.5426 11.2879 -0.1062 -7.1250 0.0000 -0.0000 -23.9701 40.0287 3.1482 -0.0000 0.0000 0.0000 74.8764 -10.9872 37.2777 -20.8039 31.5988 -5.9469 0.0000 0.0000 3.1930 -8.0903 -16.8167 2.3550 7.1250 -0.0000 -0.0000 18.5253 -46.0904 -0.5161
